<svg width="1024" height="256" viewBox="0 0 1024 256" fill="none" xmlns="http://www.w3.org/2000/svg">
<g clip-path="url(#clip0_23_2)">
<path d="M311.2 105.92C314.144 105.92 316.875 106.197 319.392 106.752C321.909 107.307 324.064 107.968 325.856 108.736C327.648 109.504 328.885 110.144 329.568 110.656L324.576 119.104C323.723 118.379 322.187 117.547 319.968 116.608C317.792 115.669 315.339 115.2 312.608 115.2C309.877 115.2 307.573 115.691 305.696 116.672C303.819 117.653 302.88 119.125 302.88 121.088C302.88 123.008 303.861 124.544 305.824 125.696C307.829 126.848 310.539 127.808 313.952 128.576C316.768 129.216 319.456 130.112 322.016 131.264C324.576 132.373 326.667 133.973 328.288 136.064C329.952 138.112 330.784 140.864 330.784 144.32C330.784 147.605 330.08 150.357 328.672 152.576C327.307 154.752 325.472 156.501 323.168 157.824C320.864 159.147 318.304 160.085 315.488 160.64C312.715 161.237 309.92 161.536 307.104 161.536C303.648 161.536 300.555 161.195 297.824 160.512C295.136 159.829 292.896 159.04 291.104 158.144C289.312 157.205 288.032 156.416 287.264 155.776L292.256 146.304C293.365 147.371 295.179 148.501 297.696 149.696C300.213 150.848 303.029 151.424 306.144 151.424C309.472 151.424 312.139 150.784 314.144 149.504C316.149 148.224 317.152 146.517 317.152 144.384C317.152 142.805 316.661 141.525 315.68 140.544C314.741 139.563 313.44 138.773 311.776 138.176C310.112 137.579 308.256 137.045 306.208 136.576C304.288 136.107 302.347 135.509 300.384 134.784C298.464 134.016 296.693 133.035 295.072 131.84C293.451 130.603 292.149 129.067 291.168 127.232C290.187 125.397 289.696 123.243 289.696 120.768C289.696 117.611 290.699 114.923 292.704 112.704C294.709 110.485 297.355 108.8 300.64 107.648C303.925 106.496 307.445 105.92 311.2 105.92ZM356.593 186.624H343.025V107.456H356.785V116.608C357.254 115.328 358.342 113.856 360.049 112.192C361.798 110.528 364.102 109.077 366.961 107.84C369.82 106.56 373.084 105.92 376.753 105.92C381.702 105.92 386.033 107.115 389.745 109.504C393.5 111.851 396.422 115.115 398.513 119.296C400.646 123.477 401.713 128.299 401.713 133.76C401.713 139.221 400.625 144.043 398.449 148.224C396.273 152.405 393.265 155.669 389.425 158.016C385.628 160.363 381.254 161.536 376.305 161.536C372.422 161.536 369.052 160.832 366.193 159.424C363.334 157.973 361.094 156.352 359.473 154.56C357.852 152.768 356.892 151.339 356.593 150.272V186.624ZM388.209 133.76C388.209 130.389 387.505 127.445 386.097 124.928C384.689 122.411 382.812 120.469 380.465 119.104C378.161 117.696 375.622 116.992 372.849 116.992C369.862 116.992 367.153 117.717 364.721 119.168C362.289 120.576 360.348 122.539 358.897 125.056C357.489 127.531 356.785 130.432 356.785 133.76C356.785 137.088 357.489 140.011 358.897 142.528C360.348 145.003 362.289 146.944 364.721 148.352C367.153 149.76 369.862 150.464 372.849 150.464C375.622 150.464 378.161 149.781 380.465 148.416C382.812 147.051 384.689 145.109 386.097 142.592C387.505 140.075 388.209 137.131 388.209 133.76ZM422.244 136.96C422.329 139.733 422.991 142.229 424.228 144.448C425.465 146.667 427.279 148.416 429.668 149.696C432.1 150.933 435.065 151.552 438.564 151.552C441.593 151.552 444.196 151.147 446.372 150.336C448.591 149.483 450.425 148.48 451.876 147.328C453.327 146.133 454.393 145.024 455.076 144L461.156 152.256C459.833 154.048 458.169 155.648 456.164 157.056C454.159 158.464 451.663 159.552 448.676 160.32C445.732 161.131 442.084 161.536 437.732 161.536C432.015 161.536 427.044 160.363 422.82 158.016C418.596 155.669 415.311 152.363 412.964 148.096C410.66 143.829 409.508 138.837 409.508 133.12C409.508 128 410.575 123.392 412.708 119.296C414.841 115.157 417.935 111.893 421.988 109.504C426.084 107.115 430.991 105.92 436.708 105.92C442.041 105.92 446.671 106.987 450.596 109.12C454.521 111.253 457.551 114.325 459.684 118.336C461.86 122.304 462.948 127.104 462.948 132.736C462.948 133.077 462.927 133.781 462.884 134.848C462.884 135.915 462.841 136.619 462.756 136.96H422.244ZM450.148 126.976C450.105 125.611 449.636 124.053 448.74 122.304C447.887 120.555 446.5 119.04 444.58 117.76C442.66 116.437 440.1 115.776 436.9 115.776C433.615 115.776 430.948 116.416 428.9 117.696C426.852 118.933 425.337 120.427 424.356 122.176C423.375 123.883 422.799 125.483 422.628 126.976H450.148ZM500.506 150.464C503.535 150.464 505.989 149.973 507.866 148.992C509.786 147.968 511.023 147.221 511.578 146.752L518.042 156.352C517.53 156.779 516.463 157.419 514.842 158.272C513.221 159.083 511.151 159.829 508.634 160.512C506.159 161.195 503.343 161.536 500.186 161.536C494.981 161.536 490.245 160.448 485.978 158.272C481.754 156.053 478.362 152.875 475.802 148.736C473.285 144.555 472.026 139.541 472.026 133.696C472.026 127.808 473.285 122.795 475.802 118.656C478.362 114.517 481.754 111.36 485.978 109.184C490.245 107.008 494.981 105.92 500.186 105.92C503.301 105.92 506.074 106.283 508.506 107.008C510.981 107.691 513.029 108.48 514.65 109.376C516.271 110.272 517.359 110.976 517.914 111.488L511.322 121.088C511.023 120.789 510.405 120.32 509.466 119.68C508.57 118.997 507.375 118.379 505.882 117.824C504.389 117.269 502.597 116.992 500.506 116.992C497.946 116.992 495.493 117.675 493.146 119.04C490.799 120.405 488.879 122.347 487.386 124.864C485.893 127.339 485.146 130.283 485.146 133.696C485.146 137.109 485.893 140.075 487.386 142.592C488.879 145.109 490.799 147.051 493.146 148.416C495.493 149.781 497.946 150.464 500.506 150.464ZM523.106 107.456H532.962V85.888H546.53V107.456H559.522V118.976H546.53V141.44C546.53 144.256 546.999 146.368 547.938 147.776C548.919 149.184 550.306 149.888 552.098 149.888C553.591 149.888 554.765 149.611 555.618 149.056C556.514 148.501 557.047 148.117 557.218 147.904L562.274 157.824C562.018 158.08 561.271 158.507 560.034 159.104C558.797 159.701 557.197 160.256 555.234 160.768C553.271 161.28 551.031 161.536 548.514 161.536C544.077 161.536 540.365 160.213 537.378 157.568C534.434 154.923 532.962 150.784 532.962 145.152V118.976H523.106V107.456ZM584.203 160H570.571V107.456H584.203V116.224H583.883C584.182 115.157 584.992 113.835 586.315 112.256C587.68 110.635 589.558 109.184 591.947 107.904C594.336 106.581 597.216 105.92 600.587 105.92C603.019 105.92 605.195 106.261 607.115 106.944C609.035 107.627 610.4 108.309 611.211 108.992L605.707 120.256C605.152 119.573 604.107 118.912 602.571 118.272C601.078 117.589 599.222 117.248 597.003 117.248C594.23 117.248 591.883 118.059 589.963 119.68C588.086 121.301 586.656 123.243 585.675 125.504C584.694 127.765 584.203 129.877 584.203 131.84V160ZM641.61 161.536C636.106 161.536 631.199 160.341 626.89 157.952C622.623 155.52 619.274 152.235 616.842 148.096C614.41 143.915 613.194 139.179 613.194 133.888C613.194 128.597 614.41 123.84 616.842 119.616C619.274 115.392 622.623 112.064 626.89 109.632C631.199 107.157 636.106 105.92 641.61 105.92C647.114 105.92 651.978 107.157 656.202 109.632C660.426 112.064 663.733 115.392 666.122 119.616C668.554 123.84 669.77 128.597 669.77 133.888C669.77 139.179 668.554 143.915 666.122 148.096C663.733 152.235 660.426 155.52 656.202 157.952C651.978 160.341 647.114 161.536 641.61 161.536ZM641.61 150.016C644.682 150.016 647.349 149.312 649.61 147.904C651.871 146.496 653.621 144.576 654.858 142.144C656.095 139.712 656.714 136.939 656.714 133.824C656.714 130.709 656.095 127.936 654.858 125.504C653.621 123.029 651.871 121.067 649.61 119.616C647.349 118.165 644.682 117.44 641.61 117.44C638.538 117.44 635.85 118.165 633.546 119.616C631.285 121.067 629.514 123.029 628.234 125.504C626.997 127.936 626.378 130.709 626.378 133.824C626.378 136.939 626.997 139.712 628.234 142.144C629.514 144.576 631.285 146.496 633.546 147.904C635.85 149.312 638.538 150.016 641.61 150.016ZM694.968 186.624H681.4V107.456H695.16V116.608C695.629 115.328 696.717 113.856 698.424 112.192C700.173 110.528 702.477 109.077 705.336 107.84C708.195 106.56 711.459 105.92 715.128 105.92C720.077 105.92 724.408 107.115 728.12 109.504C731.875 111.851 734.797 115.115 736.888 119.296C739.021 123.477 740.088 128.299 740.088 133.76C740.088 139.221 739 144.043 736.824 148.224C734.648 152.405 731.64 155.669 727.8 158.016C724.003 160.363 719.629 161.536 714.68 161.536C710.797 161.536 707.427 160.832 704.568 159.424C701.709 157.973 699.469 156.352 697.848 154.56C696.227 152.768 695.267 151.339 694.968 150.272V186.624ZM726.584 133.76C726.584 130.389 725.88 127.445 724.472 124.928C723.064 122.411 721.187 120.469 718.84 119.104C716.536 117.696 713.997 116.992 711.224 116.992C708.237 116.992 705.528 117.717 703.096 119.168C700.664 120.576 698.723 122.539 697.272 125.056C695.864 127.531 695.16 130.432 695.16 133.76C695.16 137.088 695.864 140.011 697.272 142.528C698.723 145.003 700.664 146.944 703.096 148.352C705.528 149.76 708.237 150.464 711.224 150.464C713.997 150.464 716.536 149.781 718.84 148.416C721.187 147.051 723.064 145.109 724.472 142.592C725.88 140.075 726.584 137.131 726.584 133.76ZM752.235 160V107.456H765.867V160H752.235ZM759.211 91.712C756.907 91.712 754.923 90.88 753.259 89.216C751.638 87.552 750.827 85.568 750.827 83.264C750.827 80.96 751.638 78.976 753.259 77.312C754.923 75.6053 756.907 74.752 759.211 74.752C760.747 74.752 762.155 75.1573 763.435 75.968C764.758 76.736 765.803 77.76 766.571 79.04C767.382 80.2773 767.787 81.6853 767.787 83.264C767.787 85.568 766.955 87.552 765.291 89.216C763.627 90.88 761.6 91.712 759.211 91.712ZM807.756 150.464C810.785 150.464 813.239 149.973 815.116 148.992C817.036 147.968 818.273 147.221 818.828 146.752L825.292 156.352C824.78 156.779 823.713 157.419 822.092 158.272C820.471 159.083 818.401 159.829 815.884 160.512C813.409 161.195 810.593 161.536 807.436 161.536C802.231 161.536 797.495 160.448 793.228 158.272C789.004 156.053 785.612 152.875 783.052 148.736C780.535 144.555 779.276 139.541 779.276 133.696C779.276 127.808 780.535 122.795 783.052 118.656C785.612 114.517 789.004 111.36 793.228 109.184C797.495 107.008 802.231 105.92 807.436 105.92C810.551 105.92 813.324 106.283 815.756 107.008C818.231 107.691 820.279 108.48 821.9 109.376C823.521 110.272 824.609 110.976 825.164 111.488L818.572 121.088C818.273 120.789 817.655 120.32 816.716 119.68C815.82 118.997 814.625 118.379 813.132 117.824C811.639 117.269 809.847 116.992 807.756 116.992C805.196 116.992 802.743 117.675 800.396 119.04C798.049 120.405 796.129 122.347 794.636 124.864C793.143 127.339 792.396 130.283 792.396 133.696C792.396 137.109 793.143 140.075 794.636 142.592C796.129 145.109 798.049 147.051 800.396 148.416C802.743 149.781 805.196 150.464 807.756 150.464Z" fill="white"/>
<rect x="43" y="159.865" width="152" height="44.5312" fill="white"/>
<rect x="43" y="120.974" width="152" height="29.6875" fill="white"/>
<rect x="43" y="92.1771" width="152" height="19.5938" fill="white"/>
<rect x="43" y="69.9115" width="152" height="13.0625" fill="white"/>
<rect x="43" y="52" width="152" height="8.70833" fill="white"/>
</g>
<defs>
<clipPath id="clip0_23_2">
<rect width="1024" height="256" fill="white"/>
</clipPath>
</defs>
</svg>
